<svg xmlns="http://www.w3.org/2000/svg" xmlns:xlink="http://www.w3.org/1999/xlink" width="139" height="48" version="1.1" viewBox="0 0 139 48"><defs><polygon id="path-1" points="0 .302 48.694 .302 48.694 47.98 0 47.98"/></defs><g id="Update" fill="none" fill-rule="evenodd" stroke="none" stroke-width="1"><g id="main" transform="translate(-45.000000, -28.000000)"><g id="Group-28" transform="translate(45.000000, 27.000000)"><g id="Group-3" transform="translate(0.000000, 0.677508)"><mask id="mask-2" fill="#fff"><use xlink:href="#path-1"/></mask><path id="Fill-1" fill="#FFF" d="M9.3037,39.199824 L24.5807,45.2052576 L39.7207,38.8737504 L45.8557,23.9135328 L39.3907,9.0884448 L24.1127,3.082032 L8.9677,9.4154976 L2.8357,24.374736 L9.3037,39.199824 Z M24.5957,47.9803104 C24.4237,47.9803104 24.2497,47.9479968 24.0887,47.8843488 L7.7637,41.466672 C7.4287,41.3354592 7.1597,41.0789088 7.0197,40.7528352 L0.1097,24.9103584 C-0.0323,24.5842848 -0.0373,24.2190432 0.0997,23.8890528 L6.6537,7.9026336 C6.7867,7.5746016 7.0487,7.312176 7.3817,7.1741088 L23.5617,0.408816 C23.8947,0.2687904 24.2697,0.266832 24.6047,0.3980448 L40.9297,6.8157216 C41.2657,6.9469344 41.5327,7.2034848 41.6737,7.5295584 L48.5837,23.3700768 C48.7267,23.6961504 48.7307,24.061392 48.5947,24.3913824 L42.0407,40.3778016 C41.9067,40.7058336 41.6447,40.9682592 41.3117,41.1063264 L25.1347,47.8716192 C24.9607,47.9460384 24.7787,47.9803104 24.5957,47.9803104 Z" mask="url(#mask-2)"/></g><polygon id="Fill-4" fill="#FFF" points="27.859 24.568 21.317 31.624 31.628 31.624 31.628 34.664 17.065 34.664 17.065 31.624 23.547 24.597 17.095 18.013 17.095 14.973 31.628 14.973 31.628 18.013 21.467 18.013"/><polygon id="Fill-6" fill="#FFF" points="56.831 32.706 56.831 15.724 68.714 15.724 68.714 18.347 59.874 18.347 59.874 22.751 68.532 22.751 68.532 25.374 59.874 25.374 59.874 30.084 68.714 30.084 68.714 32.706"/><path id="Fill-8" fill="#FFF" d="M83.04,21.045456 C83.04,19.4160672 81.792,18.3467808 80.075,18.3467808 L75.915,18.3467808 L75.915,23.7441312 L80.075,23.7441312 C81.792,23.7441312 83.04,22.6748448 83.04,21.045456 Z M82.78,32.7057696 L78.932,26.3664288 L75.915,26.3664288 L75.915,32.7057696 L72.873,32.7057696 L72.873,15.723504 L80.491,15.723504 C83.924,15.723504 86.16,17.9139744 86.16,21.045456 C86.16,24.0751008 84.132,25.7044896 82.052,26.0354592 L86.29,32.7057696 L82.78,32.7057696 Z"/><path id="Fill-10" fill="#FFF" d="M88.4609,24.227856 C88.4609,18.905904 92.5429,15.4434528 97.5609,15.4434528 C100.9409,15.4434528 103.1509,17.0229024 104.5559,18.9832608 L102.0599,20.3580576 C101.1489,19.0850976 99.5109,18.0912096 97.5609,18.0912096 C94.1289,18.0912096 91.5809,20.6625888 91.5809,24.227856 C91.5809,27.792144 94.1289,30.3889824 97.5609,30.3889824 C99.3289,30.3889824 100.8889,29.574288 101.6689,28.8614304 L101.6689,26.2136736 L96.4949,26.2136736 L96.4949,23.591376 L104.7109,23.591376 L104.7109,29.956176 C102.9949,31.8146976 100.5769,33.0367392 97.5609,33.0367392 C92.5429,33.0367392 88.4609,29.5488288 88.4609,24.227856"/><path id="Fill-12" fill="#FFF" d="M121.7559,24.227856 C121.7559,20.7144864 119.4929,18.0912096 116.0099,18.0912096 C112.4989,18.0912096 110.2639,20.7144864 110.2639,24.227856 C110.2639,27.7167456 112.4989,30.3635232 116.0099,30.3635232 C119.4929,30.3635232 121.7559,27.7167456 121.7559,24.227856 M107.1439,24.227856 C107.1439,19.1614752 110.8099,15.4434528 116.0099,15.4434528 C121.2099,15.4434528 124.8759,19.1614752 124.8759,24.227856 C124.8759,29.2942368 121.2099,33.0122592 116.0099,33.0122592 C110.8099,33.0122592 107.1439,29.2942368 107.1439,24.227856"/><text id="node-interface" fill="#FFF" font-family="Helvetica-Light, Helvetica" font-size="13" font-weight="300"><tspan x="56" y="46">node interface</tspan></text></g></g></g></svg>